<?xml version="1.0" encoding="UTF-8"?>
<svg id="Layer_1" data-name="Layer 1" xmlns="http://www.w3.org/2000/svg" viewBox="0 0 1769.37 649.12">
  <defs>
    <style>
      .cls-1 {
        fill: #fff;
      }

      .cls-2 {
        fill: #a7a9ac;
      }

      .cls-2, .cls-3, .cls-4 {
        fill-rule: evenodd;
      }

      .cls-3 {
        fill: #414042;
      }

      .cls-4 {
        fill: #5479f7;
      }
    </style>
  </defs>
  <g>
    <polygon class="cls-3" points="920.01 162.64 880.66 162.64 880.66 0 920.01 0 920.01 162.64 920.01 162.64"/>
    <path class="cls-3" d="m1170.35,385.94h-21.46v46.66h21.46v-46.66h0Zm-21.46,70.65v46.66h21.46v-46.66h-21.46Zm-16.09-70.65h-21.46v46.66h21.46v-46.66h0Zm-21.46,70.65v46.66h21.46v-46.66h-21.46Z"/>
    <path class="cls-3" d="m426.43,385.94h-21.46v46.66h21.46v-46.66h0Zm-21.46,70.65v46.66h21.46v-46.66h-21.46Zm-16.09-70.65h-21.46v46.66h21.46v-46.66h0Zm-21.46,70.65v46.66h21.46v-46.66h-21.46Z"/>
    <path class="cls-3" d="m674.1,225.97h-21.46v46.66h21.46v-46.66h0Zm-21.46,70.65v46.66h21.46v-46.66h-21.46Zm-16.09-70.65h-21.46v46.66h21.46v-46.66h0Zm-21.46,70.65v46.66h21.46v-46.66h-21.46Z"/>
    <polygon class="cls-4" points="871.72 237.29 782.31 74.65 880.66 74.65 880.66 162.64 920.01 162.64 945.04 127.98 945.04 74.65 1102.41 74.65 1025.51 213.3 907.49 213.3 748.33 487.91 508.71 487.91 520.83 464.7 554.3 400.61 743.85 400.61 826.11 253.97 861.88 253.97 871.72 237.29 871.72 237.29"/>
    <polygon class="cls-4" points="782.31 74.65 871.72 237.29 769.79 237.29 637.46 9.33 782.31 74.65 782.31 74.65"/>
    <polygon class="cls-4" points="901.46 303.11 1102.92 303.11 1001.82 478.98 800.35 478.98 901.46 303.11 901.46 303.11"/>
    <polygon class="cls-2" points="1238.01 312.5 1345.61 501.24 1320.57 501.24 1098.83 116.64 1090.35 131.68 1028.19 241.95 911.06 241.95 875.9 303.11 774.79 478.98 758.01 508.18 519.72 508.18 508.71 487.91 748.33 487.91 907.49 213.3 1025.51 213.3 1102.41 74.65 1190.57 229.29 1238.01 312.5 1238.01 312.5"/>
    <polygon class="cls-3" points="1098.83 116.64 1320.57 501.24 1260.67 501.24 1260.67 431.26 1090.35 131.68 1098.83 116.64 1098.83 116.64"/>
    <polygon class="cls-2" points="1102.03 331.27 1009.34 497.61 807.77 497.61 800.35 478.98 1001.82 478.98 1102.92 303.11 1102.03 331.27 1102.03 331.27"/>
    <polygon class="cls-2" points="826.11 253.97 761.73 253.97 769.79 237.29 871.72 237.29 861.88 253.97 826.11 253.97 826.11 253.97"/>
    <polygon class="cls-2" points="637.46 9.33 769.79 237.29 761.73 253.97 639.24 42 518.53 249.97 514.07 225.29 637.46 9.33 637.46 9.33"/>
    <path class="cls-3" d="m508.71,487.91l-120.19-215.12-105.13,176.23v95.61c-79.37,11.22-153.38,24.82-220.75,40.45l31.19-46.5,116.24-21.33,24.3-3.02,49.02-79.44,100.45-170.38,4.68,8.38,120.19,215.12h0Z"/>
    <polygon class="cls-2" points="283.39 434.79 234.37 514.23 210.07 517.24 383.53 223.96 520.83 464.7 508.71 487.91 388.51 272.79 383.83 264.4 283.39 434.79 283.39 434.79"/>
    <polygon class="cls-4" points="554.3 400.61 520.83 464.7 383.53 223.96 514.07 225.29 518.53 249.97 554.3 249.97 554.3 400.61 554.3 400.61"/>
  </g>
  <rect class="cls-1" y="513.66" width="1769.37" height="135.46"/>
</svg>