<?xml version="1.0" encoding="UTF-8"?>
<svg id="Layer_1" data-name="Layer 1" xmlns="http://www.w3.org/2000/svg" viewBox="0 0 1299.8 592.15">
  <defs>
    <style>
      .cls-1 {
        isolation: isolate;
      }

      .cls-2 {
        fill: #a7a9ac;
      }

      .cls-2, .cls-3, .cls-4 {
        fill-rule: evenodd;
      }

      .cls-3, .cls-5 {
        fill: #414042;
      }

      .cls-4 {
        fill: #5479f7;
      }
    </style>
  </defs>
  <polygon class="cls-3" points="731.31 103.61 699.59 103.61 699.59 0 731.31 0 731.31 103.61"/>
  <path class="cls-3" d="m933.13,245.86h-17.3v29.72h17.3v-29.72h0Zm-17.31,45.01v29.72h17.3v-29.72h-17.3Zm-12.97-45.01h-17.3v29.72h17.3v-29.72h0Zm-17.3,45.01v29.72h17.3v-29.72h-17.3Z"/>
  <path class="cls-3" d="m333.41,245.86h-17.3v29.72h17.3v-29.72h0Zm-17.29,45.01v29.72h17.3v-29.72h-17.3Zm-12.97-45.01h-17.3v29.72h17.3v-29.72h0Zm-17.31,45.01v29.72h17.3v-29.72h-17.3Z"/>
  <path class="cls-3" d="m533.08,143.95h-17.3v29.72h17.3v-29.72h0Zm-17.3,45.01v29.72h17.3v-29.72h-17.3Zm-12.98-45.01h-17.3v29.72h17.3v-29.72h0Zm-17.3,45.01v29.72h17.3v-29.72h-17.3Z"/>
  <polygon class="cls-4" points="692.39 151.16 620.31 47.56 699.59 47.56 699.59 103.61 731.31 103.61 751.49 81.53 751.49 47.56 878.35 47.56 816.36 135.88 721.22 135.88 592.91 310.82 399.74 310.82 409.51 296.03 436.49 255.2 589.3 255.2 655.62 161.79 684.45 161.79 692.39 151.16"/>
  <polygon class="cls-4" points="620.31 47.56 692.39 151.16 610.21 151.16 503.54 5.94 620.31 47.56"/>
  <polygon class="cls-4" points="716.35 193.09 878.77 193.09 797.26 305.13 634.85 305.13 716.35 193.09"/>
  <polygon class="cls-4" points="987.66 199.07 949.42 146.07 1029.72 146.07 1019.1 159.45 1013.48 166.54 987.66 199.07"/>
  <polygon class="cls-2" points="1142.16 326.1 1019.1 159.45 1029.72 146.07 1165.19 329.82 1142.16 326.1"/>
  <path class="cls-3" d="m1019.1,159.45l123.06,166.65,23.03,3.72,82.21,13.27,25.14,29.62c-51.03-9.36-106.8-17.57-166.42-24.46h0v-57.82l-92.64-123.9,5.62-7.08h0Z"/>
  <polygon class="cls-2" points="987.66 199.07 1074.41 319.31 1054.23 319.31 875.47 74.31 868.63 83.88 818.52 154.13 724.1 154.13 695.76 193.09 614.25 305.13 600.71 323.73 408.62 323.73 399.74 310.82 592.91 310.82 721.22 135.88 816.36 135.88 878.35 47.56 949.42 146.07 987.66 199.07"/>
  <polygon class="cls-3" points="875.47 74.31 1054.23 319.31 1005.93 319.31 1005.93 274.73 868.63 83.88 875.47 74.31"/>
  <polygon class="cls-2" points="878.05 211.03 803.33 317 640.83 317 634.85 305.13 797.26 305.13 878.77 193.09 878.05 211.03"/>
  <polygon class="cls-2" points="655.62 161.79 603.72 161.79 610.21 151.16 692.39 151.16 684.45 161.79 655.62 161.79"/>
  <polygon class="cls-2" points="503.54 5.94 610.21 151.16 603.72 161.79 504.97 26.76 407.66 159.24 404.07 143.52 503.54 5.94"/>
  <path class="cls-3" d="m399.74,310.82l-96.89-137.04-84.75,112.26v60.9c-63.98,7.15-123.65,15.81-177.96,25.77l25.15-29.62,93.71-13.59,19.59-1.92,39.52-50.61,80.97-108.54,3.77,5.34,96.89,137.05h0Z"/>
  <polygon class="cls-2" points="218.29 277.41 179.02 328.27 159.44 330.32 298.39 142.58 409.79 295.21 400.09 310.06 302.55 173.66 298.76 168.34 218.29 277.41"/>
  <polygon class="cls-4" points="436.49 255.2 409.51 296.03 298.83 142.67 404.07 143.52 407.66 159.24 436.49 159.24 436.49 255.2"/>
  <g class="cls-1">
    <path class="cls-5" d="m13.32,399.36h30.99v75.45c0,10.64.52,18.06,1.55,22.25,1.03,4.19,3.18,7.37,6.46,9.53,3.27,2.16,7.28,3.24,12.03,3.24,5.16,0,9.26-1.19,12.29-3.58,3.03-2.38,4.89-5.54,5.58-9.48.69-3.93,1.03-11.25,1.03-21.96v-75.45h25.93v74.29c0,14.83-.91,25.89-2.74,33.18-1.83,7.29-6.47,13.54-13.94,18.77-7.47,5.22-17.75,7.83-30.83,7.83-12.26,0-21.9-1.92-28.92-5.76-7.02-3.84-12.02-9.22-14.98-16.15-2.96-6.93-4.44-19.17-4.44-36.71v-75.45Z"/>
    <path class="cls-5" d="m134.69,399.36h34.4l36.25,82.03v-82.03h23.96v132.04h-27.68l-42.97-95.57v95.57h-23.96v-132.04Z"/>
    <path class="cls-5" d="m323.3,483.33l28.61,1.64c-1.03,14.32-5.89,25.97-14.56,34.97-8.68,9-20.14,13.49-34.4,13.49-17.35,0-30.57-6.03-39.66-18.09-9.09-12.06-13.63-28.66-13.63-49.82s4.51-38.05,13.53-50.11c9.02-12.06,22.41-18.09,40.18-18.09,29.4,0,45.41,17.02,48.03,51.07l-28.3,1.93c-.76-19.6-7.3-29.41-19.62-29.41-6.47,0-11.62,3.16-15.44,9.48-3.82,6.32-5.73,18.57-5.73,36.76,0,16.25,1.76,27.42,5.27,33.52,3.51,6.09,8.78,9.14,15.8,9.14,11.29,0,17.94-8.83,19.93-26.5Z"/>
    <path class="cls-5" d="m368.74,399.36h26.44v29.21l-15.08,25.92h-11.36l11.67-25.92h-11.67v-29.21Z"/>
    <path class="cls-5" d="m506.74,428.09l-25.62,9.19c-3.65-10.9-10.33-16.35-20.04-16.35-4.54,0-8.14,1.21-10.79,3.63-2.65,2.42-3.98,5.24-3.98,8.46,0,3.74,1.57,6.72,4.7,8.95,3.13,2.22,9.69,5.14,19.68,8.75,9.09,3.16,16.23,6.29,21.43,9.38,5.2,3.1,9.4,7.3,12.6,12.62,3.2,5.32,4.8,11.5,4.8,18.52,0,12.32-4.53,22.43-13.58,30.33-9.06,7.9-21.19,11.85-36.41,11.85-25.55,0-41.87-12.09-48.96-36.27l27.06-7.25c3.31,13.29,10.85,19.93,22.62,19.93,5.37,0,9.73-1.31,13.07-3.92,3.34-2.61,5.01-6.05,5.01-10.3,0-3.22-1.17-6.11-3.51-8.66-2.34-2.55-7.71-5.24-16.11-8.08-10.81-3.61-18.87-6.88-24.17-9.82-5.3-2.93-9.68-7.12-13.12-12.58-3.44-5.45-5.16-11.66-5.16-18.62,0-11.87,4.08-21.59,12.24-29.17,8.16-7.58,18.95-11.37,32.38-11.37,24.51,0,39.8,10.25,45.86,30.76Z"/>
    <path class="cls-5" d="m568.09,399.36h44.31c8.61,0,15.2.37,19.78,1.11,4.58.74,9.21,2.74,13.89,6,4.68,3.26,8.35,7.71,11,13.35,2.65,5.64,3.98,11.98,3.98,19.01,0,16.51-6.61,28.12-19.83,34.82l25.93,57.75h-33.73l-18.86-52.24h-15.48v52.24h-30.99v-132.04Zm30.99,21.38v37.05h13.63c12.12,0,18.18-6.35,18.18-19.06,0-4.38-.9-7.98-2.69-10.79-1.79-2.81-3.87-4.71-6.25-5.71-2.38-1-5.87-1.5-10.48-1.5h-12.39Z"/>
    <path class="cls-5" d="m779.84,465.33c0,45.4-17.04,68.1-51.13,68.1-16.94,0-29.71-5.79-38.32-17.36-8.61-11.57-12.91-28.49-12.91-50.74,0-45.33,17.04-68,51.13-68,16.66,0,29.37,5.67,38.11,17.02,8.74,11.35,13.12,28.34,13.12,50.98Zm-32.64,0c0-17.8-1.48-29.65-4.44-35.55-2.96-5.9-7.68-8.85-14.15-8.85s-11.09,2.97-14.05,8.9c-2.96,5.93-4.44,17.77-4.44,35.5s1.46,29.18,4.39,35.31c2.93,6.13,7.62,9.19,14.1,9.19s11.1-2.93,14.1-8.8c3-5.87,4.49-17.76,4.49-35.69Z"/>
    <path class="cls-5" d="m898.73,465.33c0,45.4-17.04,68.1-51.13,68.1-16.94,0-29.71-5.79-38.32-17.36-8.61-11.57-12.91-28.49-12.91-50.74,0-45.33,17.04-68,51.13-68,16.66,0,29.37,5.67,38.11,17.02,8.74,11.35,13.12,28.34,13.12,50.98Zm-32.64,0c0-17.8-1.48-29.65-4.44-35.55-2.96-5.9-7.68-8.85-14.15-8.85s-11.09,2.97-14.05,8.9c-2.96,5.93-4.44,17.77-4.44,35.5s1.46,29.18,4.39,35.31c2.93,6.13,7.62,9.19,14.1,9.19s11.1-2.93,14.1-8.8c3-5.87,4.49-17.76,4.49-35.69Z"/>
    <path class="cls-5" d="m920.31,399.36h83.67v22.63h-52.68v34.53h40.59v22.63h-40.59v52.24h-30.99v-132.04Z"/>
    <path class="cls-5" d="m1014,399.36h30.99v132.04h-30.99v-132.04Z"/>
    <path class="cls-5" d="m1070.5,399.36h34.4l36.25,82.03v-82.03h23.96v132.04h-27.68l-42.97-95.57v95.57h-23.96v-132.04Z"/>
    <path class="cls-5" d="m1239.99,460.98h48.96v70.42h-13.12l-4.03-15.09c-7.58,11.41-18.94,17.12-34.08,17.12-16.05,0-28.77-5.92-38.17-17.75-9.4-11.83-14.1-27.75-14.1-47.74,0-21.73,4.63-38.93,13.89-51.61,9.26-12.67,22.95-19.01,41.06-19.01,28.85,0,45.03,15.09,48.55,45.27l-27.89,4.26c-1.93-17.28-8.61-25.92-20.04-25.92-6.96,0-12.52,3.19-16.68,9.58-4.17,6.38-6.25,18.48-6.25,36.27,0,15.8,2.03,26.92,6.09,33.37,4.06,6.45,10.02,9.67,17.87,9.67,12.6,0,18.94-8.74,19-26.21h-21.07v-22.64Z"/>
  </g>
</svg>